<?xml version="1.0" encoding="utf-8"?>
<!-- Generator: Adobe Illustrator 19.1.0, SVG Export Plug-In . SVG Version: 6.00 Build 0)  -->
<svg version="1.1" id="Layer_1" xmlns="http://www.w3.org/2000/svg" xmlns:xlink="http://www.w3.org/1999/xlink" x="0px" y="0px"
	 viewBox="0 0 32.4 30.4" style="enable-background:new 0 0 32.4 30.4;" xml:space="preserve">
<path style="fill:#31AFF5;" d="M32,8.8c-0.7-2-2.4-3.5-4.9-4.5C25.8,2.2,23.9,1,21.4,1c-1,0-1.8,0.2-2.4,0.3C17.5,0.5,16.1,0,14.7,0
	c-2.5,0-4.2,1.4-5.1,2.2H9.5c-2.5,0-4,1.1-4.8,2c-0.6,0.7-1,1.5-1.2,2c-2.4,1.2-3.1,2.9-3.3,4.3c-0.2,1.3,0.1,2.4,0.4,3.2
	c-0.1,0.3-0.2,0.6-0.3,0.9c0,0.1-0.1,0.2-0.1,0.3c0,0,0,0,0,0c-0.3,1.3-0.3,2.7,0.6,4.2c1.5,2.3,3.7,3.6,6.5,3.6
	c1.1,0,2.2-0.2,2.8-0.4c0.5,0.4,1,0.6,1.2,0.6c1,0.4,2,0.7,3,0.7c0.9,0,1.7-0.2,2.3-0.4c0.8,1,2.1,1.6,3.7,1.6c0.1,0,0.1,0,0.2,0
	c0.4,0.7,1.8,4.6,1.9,4.7c0.2,0.3,0.7,0.9,1.7,0.9c0.6,0,1.8-0.2,2.8-0.9c1.3-0.8,1.8-1.9,1.9-2.6c0.1-0.5-0.9-2.6-1.3-3.6
	c1.9-0.8,2.9-2.2,3.3-3.4c0.6-1.7,0.5-3.5,0.4-4.5C32.4,13,32.7,10.8,32,8.8 M24.9,22.1c-0.2,0,2,4.5,2,4.6c0,0.1-0.2,0.8-1,1.3
	c-0.7,0.4-1.5,0.6-1.8,0.6c-0.1,0-0.2,0-0.2,0c-0.1-0.2-1.3-4.5-2.5-5.6c0,0-0.1,0-0.1,0c-0.2,0-0.5,0-0.9,0c-0.6,0-1.3-0.1-1.9-0.6
	c1.2-0.8,1.8-1.8,2.2-2.6l0-0.1c0.6-1.2,1.3-2.1,2.9-2c0.5,0,0.9-0.4,0.9-0.9c0-0.5-0.4-0.9-0.9-0.9c-2.9-0.1-4,2-4.6,3l0,0.1
	c-0.6,1.1-2,2.8-4.6,2.9c-0.7,0-1.4-0.1-2.2-0.5c0,0,0,0,0,0c-0.4-0.2-0.8-0.4-1.3-0.7c-0.6-0.5-1.4-1.3-1.9-2.7
	c-0.2-0.5-0.7-0.7-1.2-0.5C7.3,17.5,7,18,7.2,18.5c0.3,0.9,0.8,1.7,1.3,2.3c-0.4,0.1-0.8,0.1-1.2,0.1c-1.6,0-3.6-0.5-4.9-2.7
	c-0.6-1-0.6-2.1-0.4-2.9c0,0,0,0,0,0c0,0,0.2-0.8,1.1-1.4c1-0.6,2.5-0.6,4.4-0.2c0.5,0.1,1-0.2,1.1-0.6c0.1-0.5-0.2-1-0.6-1.1
	c-2.4-0.6-4.4-0.5-5.8,0.4C1.8,10.9,1.9,8.7,5,7.5C5.1,7.5,5.4,4,9.5,4c0.3,0,0.5,0.1,0.8,0.1c0.1,0,1.7-2.3,4.4-2.3
	c0.7,0,1.5,0.2,2.3,0.5c-0.8,0.6-1.4,1.4-1.8,2.5c0,0,0,0,0,0c0,0,0,0,0,0c0,0,0,0,0,0c-0.1,0.3-0.2,0.7-0.4,1
	c-0.5,1.4-0.7,1.9-1.9,1.9c-0.5,0-0.9,0.4-0.9,0.9c0,0.5,0.4,0.9,0.9,0.9c1.5,0,2.3-0.6,2.8-1.4c0.4,0.5,1.1,1,2.2,1.1
	c0,0,0,0,0.1,0c0.5,0,0.9-0.4,0.9-0.8c0-0.5-0.3-0.9-0.8-1c-0.5,0-0.9-0.2-1.1-0.6c-0.3-0.5-0.3-1.1-0.2-1.4
	c0.8-2.5,4.3-2.7,4.5-2.7c1.5,0,3.3,0.6,4.4,2.9c0,0.1,6.8,1.7,4.2,7.7c0-0.1-0.1-0.1-0.1-0.2c-0.9-1.2-2.7-2.7-5.9-2.9
	c-0.5,0-0.9,0.3-1,0.8c0,0.5,0.3,0.9,0.8,1c4.8,0.3,5.4,3.9,5.4,4.1c0,0.1,0,0.1,0,0.2C29.4,18.4,29.1,21.7,24.9,22.1"/>
<path style="fill:#31AFF5;" d="M17.7,12.1c-1.2-0.2-2.4,0.3-3.1,1.1c-0.7,0.8-1,2-0.7,3.1c0.1,0.4,0.5,0.7,0.9,0.7
	c0.1,0,0.2,0,0.2,0c0.5-0.1,0.8-0.6,0.7-1.1c-0.2-0.6-0.1-1.1,0.3-1.5c0.4-0.4,1-0.6,1.6-0.5c0.5,0.1,1-0.3,1-0.8
	C18.6,12.7,18.2,12.2,17.7,12.1"/>
</svg>
