<?xml version="1.0" encoding="utf-8"?>
<!-- Generator: Adobe Illustrator 19.1.0, SVG Export Plug-In . SVG Version: 6.00 Build 0)  -->
<svg version="1.1" id="Layer_1" xmlns="http://www.w3.org/2000/svg" xmlns:xlink="http://www.w3.org/1999/xlink" x="0px" y="0px"
	 viewBox="0 0 31 20.6" style="enable-background:new 0 0 31 20.6;" xml:space="preserve">
<path style="fill:#31AFF5;" d="M24.5,6.2C22.9,2.5,19.2,0,15,0C9.8,0,5.4,4,4.8,9.2C2.1,9.7,0,12,0,14.9c0,3.2,2.6,5.8,5.8,5.8H15
	c0.6,0,1.1-0.5,1.1-1.1v-7.8l1.7,1.7c0.2,0.2,0.5,0.3,0.7,0.3c0.3,0,0.5-0.1,0.7-0.3c0.4-0.4,0.4-1.1,0-1.5l-3.5-3.5
	c-0.2-0.2-0.5-0.3-0.7-0.3s-0.5,0.1-0.7,0.3l-3.5,3.5c-0.4,0.4-0.4,1.1,0,1.5c0.4,0.4,1.1,0.4,1.5,0l1.7-1.7v6.8H5.8
	c-2,0-3.7-1.6-3.7-3.7c0-2,1.6-3.6,3.6-3.7c0.2,0,0.5-0.1,0.7-0.2c0.3-0.2,0.4-0.5,0.4-0.8c0.1-4.5,3.8-8.1,8.2-8.1
	c3.5,0,6.6,2.2,7.7,5.5c0.1,0.4,0.5,0.8,1,0.8c2.8,0,5.1,2.3,5.1,5.1s-2.3,5.1-5.1,5.1c-0.6,0-1.1,0.5-1.1,1.1
	c0,0.6,0.5,1.1,1.1,1.1c4,0,7.2-3.2,7.2-7.2C31,9.7,28.2,6.6,24.5,6.2"/>
</svg>
