<?xml version="1.0" encoding="utf-8"?>
<!-- Generator: Adobe Illustrator 19.1.0, SVG Export Plug-In . SVG Version: 6.00 Build 0)  -->
<svg version="1.1" id="Layer_1" xmlns="http://www.w3.org/2000/svg" xmlns:xlink="http://www.w3.org/1999/xlink" x="0px" y="0px"
	 viewBox="0 0 32.6 32.6" style="enable-background:new 0 0 32.6 32.6;" xml:space="preserve">
<path style="fill:#31AFF5;" d="M13.7,10.7c0.5-0.4,1.2-0.6,2.2-0.7v4.7c-1.1-0.3-1.8-0.6-2.3-1c-0.4-0.4-0.6-0.8-0.6-1.4
	C13,11.6,13.2,11.1,13.7,10.7 M19.6,17.9c0.5,0.4,0.7,0.9,0.7,1.6c0,0.8-0.3,1.4-0.9,1.9c-0.6,0.5-1.5,0.7-2.7,0.7
	c0-0.6,0-1.5,0-2.7s0-2.1,0-2.7C18.2,17.1,19.2,17.5,19.6,17.9 M15.9,23.8v1.8h0.9v-1.8c1.7,0,3-0.4,3.9-1.2
	c0.9-0.8,1.4-1.8,1.4-3.1c0-1.1-0.4-2-1.1-2.7c-0.8-0.7-2.1-1.3-4.1-1.9v-4.9c0.9,0.1,1.5,0.4,2,0.8s0.7,1.1,0.9,1.9l1.7-0.4
	c-0.2-1.2-0.7-2.2-1.5-2.9c-0.8-0.7-1.8-1.1-3.1-1.2V7.1h-0.9v1.3c-1.5,0.1-2.6,0.5-3.4,1.2c-0.8,0.8-1.3,1.7-1.3,2.7
	c0,1,0.4,1.8,1.1,2.5c0.8,0.7,1.9,1.2,3.5,1.6c0,0.6,0,1.6,0,2.8c0,1.3,0,2.2,0,2.8c-1.1-0.1-1.9-0.5-2.4-1.2
	c-0.5-0.6-0.9-1.6-1.1-2.9l-1.8,0.4C10.9,21.7,12.7,23.5,15.9,23.8"/>
<path style="fill:#31AFF5;" d="M16.3,32.6C7.3,32.6,0,25.3,0,16.3S7.3,0,16.3,0c9,0,16.3,7.3,16.3,16.3S25.3,32.6,16.3,32.6z
	 M16.3,1.8c-8,0-14.5,6.5-14.5,14.5c0,8,6.5,14.5,14.5,14.5c8,0,14.5-6.5,14.5-14.5C30.8,8.3,24.3,1.8,16.3,1.8z"/>
</svg>
