<?xml version="1.0" encoding="utf-8"?>
<!-- Generator: Adobe Illustrator 19.1.0, SVG Export Plug-In . SVG Version: 6.00 Build 0)  -->
<svg version="1.1" id="Layer_1" xmlns="http://www.w3.org/2000/svg" xmlns:xlink="http://www.w3.org/1999/xlink" x="0px" y="0px"
	 viewBox="0 0 72.5 53.2" style="enable-background:new 0 0 72.5 53.2;" xml:space="preserve">
<path style="fill:#31AFF5;" d="M71.8,14C53.5-4.2,24.2-4.7,5.4,12.7l-1.5-1.5c-0.9-0.9-2.3-0.9-3.2,0c-0.9,0.9-0.9,2.3,0,3.2
	L33.2,47c-0.1,0.5-0.3,1.1-0.3,1.6c0,2.5,2.1,4.6,4.6,4.6c2.6,0,4.6-2.1,4.6-4.6c0-2.6-2.1-4.6-4.6-4.6c-0.4,0-0.7,0.1-1,0.1
	l-8.3-8.3C34.4,31,43.3,31.4,49,37c0.9,0.9,2.3,0.9,3.2,0c0.9-0.9,0.9-2.3,0-3.2c-7.4-7.4-19.2-7.9-27.1-1.4l-6.5-6.5
	c11.4-10.2,29-9.8,40,1.1c0.9,0.9,2.3,0.9,3.2,0c0.9-0.9,0.9-2.3,0-3.2c-12.7-12.7-33.1-13.1-46.4-1.1L8.7,16
	c17-15.6,43.5-15.2,60,1.3c0.4,0.4,1.1,0.7,1.6,0.7c0.6,0,1.1-0.2,1.6-0.7C72.7,16.3,72.7,14.9,71.8,14z"/>
</svg>
