<?xml version="1.0" encoding="utf-8"?>
<!-- Generator: Adobe Illustrator 19.1.0, SVG Export Plug-In . SVG Version: 6.00 Build 0)  -->
<svg version="1.1" id="Layer_1" xmlns="http://www.w3.org/2000/svg" xmlns:xlink="http://www.w3.org/1999/xlink" x="0px" y="0px"
	 viewBox="0 0 35.5 31.4" style="enable-background:new 0 0 35.5 31.4;" xml:space="preserve">
<path style="fill:#31AFF5;" d="M32.3,21.2H14.7c-1.2,0-1.2,1.9,0,1.9h17.6C33.5,23.1,33.5,21.2,32.3,21.2"/>
<path style="fill:#31AFF5;" d="M34.7,15.9H19.4c-1.1,0-1.1,1.8,0,1.8h15.3C35.8,17.7,35.8,15.9,34.7,15.9"/>
<path style="fill:#31AFF5;" d="M29,10.7H11.3c-1.2,0-1.2,1.8,0,1.8H29C30.2,12.6,30.2,10.7,29,10.7"/>
<path style="fill:#31AFF5;" d="M13.6,31.4c-4.5,0-8.1-3.7-8.1-8.1c0-0.3,0-0.5,0.1-0.7C2.3,21.4,0,18.4,0,14.9
	c0-4.5,3.7-8.1,8.1-8.1c0.3,0,0.5,0,0.8,0c0.6-3.9,3.9-6.8,8-6.8c3.8,0,7.2,2.7,8,6.5C25,7.1,24.6,7.6,24,7.7
	c-0.6,0.1-1.1-0.2-1.2-0.8c-0.6-2.8-3.1-4.8-5.9-4.8c-3.4,0-6,2.6-6,5.9c0,0.3-0.2,0.7-0.5,0.9c-0.3,0.2-0.7,0.2-1,0.1L9.3,8.9
	C8.9,8.9,8.5,8.8,8.1,8.8c-3.3,0-6,2.7-6,6c0,2.9,2,5.4,4.9,5.9c0.3,0.1,0.6,0.3,0.7,0.5c0.1,0.3,0.2,0.6,0,0.9l-0.1,0.2
	c0,0.1,0,0.1,0,0.2c0,0.2-0.1,0.4-0.1,0.6c0,3.3,2.7,6,6,6c2.5,0,4.7-1.5,5.6-3.7c0.2-0.5,0.8-0.8,1.4-0.6c0.5,0.2,0.8,0.8,0.6,1.4
	C19.8,29.4,16.9,31.4,13.6,31.4"/>
</svg>
