<?xml version="1.0" encoding="utf-8"?>
<!-- Generator: Adobe Illustrator 19.1.0, SVG Export Plug-In . SVG Version: 6.00 Build 0)  -->
<svg version="1.1" id="Layer_1" xmlns="http://www.w3.org/2000/svg" xmlns:xlink="http://www.w3.org/1999/xlink" x="0px" y="0px"
	 viewBox="0 0 35.2 34" style="enable-background:new 0 0 35.2 34;" xml:space="preserve">
<path style="fill:#31AFF5;" d="M30.3,7.6c4.7,6.3,4.1,14.7-1.4,20.3c-5.6,5.6-14.7,5.8-21,1.4C7,28.6,6.2,30,7,30.6
	c7.1,5,16.7,4.3,23-1.6c6.3-5.8,6.7-15.5,1.7-22.2C31.1,6,29.7,6.8,30.3,7.6"/>
<path style="fill:#31AFF5;" d="M4.9,26.4C0.1,20.1,0.7,11.7,6.3,6.1c5.6-5.6,14.7-5.8,21-1.4c0.9,0.6,1.7-0.8,0.8-1.4
	c-7.1-5-16.7-4.2-23,1.6c-6.3,5.8-6.7,15.6-1.7,22.3C4.1,28,5.5,27.2,4.9,26.4"/>
<path style="fill:#31AFF5;" d="M8.7,22.7C6,18.4,6.5,13.3,10,9.7c3.5-3.6,9.2-3.8,13.4-1.3c0.9,0.5,1.7-0.8,0.8-1.4
	c-5-3-11.1-2.3-15.4,1.6c-4.2,3.9-4.6,10.3-1.6,14.9C7.8,24.3,9.2,23.5,8.7,22.7"/>
<path style="fill:#31AFF5;" d="M26.5,11.4c2.6,4.2,2.1,9.3-1.4,12.9c-3.5,3.6-9.2,3.8-13.4,1.4c-0.9-0.5-1.8,0.8-0.8,1.4
	c5,2.9,11.1,2.3,15.4-1.6c4.2-3.8,4.6-10.2,1.7-14.8C27.4,9.7,26,10.5,26.5,11.4"/>
<path style="fill:#31AFF5;" d="M21.2,20.5c-2.1,1.9-5.1,1.9-7.2,0c-2.1-1.9-1.8-5.1,0-7c2-2,5.3-1.8,7.2,0
	C23.3,15.4,23,18.6,21.2,20.5c-0.7,0.8,0.4,1.9,1.2,1.1c2.6-2.7,2.6-6.6,0-9.3c-2.6-2.7-7-2.3-9.6,0c-2.8,2.5-2.4,6.7,0,9.3
	c2.6,2.7,7,2.3,9.6,0C23.2,20.9,22,19.8,21.2,20.5"/>
</svg>
