<?xml version="1.0" encoding="utf-8"?>
<!-- Generator: Adobe Illustrator 19.2.0, SVG Export Plug-In . SVG Version: 6.00 Build 0)  -->
<svg version="1.1" id="Layer_1" xmlns="http://www.w3.org/2000/svg" xmlns:xlink="http://www.w3.org/1999/xlink" x="0px" y="0px"
	 viewBox="0 0 310.5 117.8" style="enable-background:new 0 0 310.5 117.8;" xml:space="preserve">
<style type="text/css">
	.st0{fill:#FFFFFF;}
	.st1{fill:#31AFF5;}
</style>
<g>
	<path class="st0" d="M92.9,38.2V26.4h10.9v-18L117.2,0v26.4h16.9v11.9h-16.9v31.8c0,7.1,2.8,10.6,8.7,10.6c2.2,0,4.3-0.6,6.2-1.8
		l3.5,11.4c-3.2,1.6-6.7,2.3-10.5,2.3c-12.9,0-21.3-7.9-21.3-23.3v-31L92.9,38.2L92.9,38.2z"/>
	<path class="st0" d="M173.4,51.4h11.2v-2.8c0-7.8-5.3-11.4-12.7-11.4c-5.9,0-10,2.8-12.1,8.7l-12.3-2.6c2.7-11,12.2-18,24.6-18
		c17.3,0,26,8.5,26,25.7v40.5h-11.4l-1.3-8.5c-4.5,6.3-11.2,9.6-20.2,9.6c-11.5,0-20-6.9-20-19.8C145.2,59.4,156.4,51.4,173.4,51.4z
		 M167.6,80.6c4.5,0,8.5-1.4,11.9-4.3c3.5-3,5.2-7,5.2-12.3v-1.4h-11.8c-8.3,0-13.4,3.9-13.4,10.1C159.4,77.4,162.3,80.6,167.6,80.6
		z"/>
	<path class="st0" d="M246,92.5c-7.6,0-14.2-3.6-17.4-8.3v33.6h-13.5V26.4h13.4v7.4c2.5-4.3,9.8-8.5,17.7-8.5
		c19,0,29.1,12.4,29.1,33.6C275.4,79.6,265.1,92.5,246,92.5z M261.1,58.9c0-6.6-1.5-11.9-4.7-15.8c-3.1-4-7.1-5.9-12-5.9
		s-8.9,1.9-12,5.9c-3.1,3.9-4.7,9.2-4.7,15.8s1.6,11.9,4.7,15.9c3.1,3.9,7.1,5.8,12,5.8s8.9-1.9,12-5.8
		C259.6,70.8,261.1,65.5,261.1,58.9z"/>
	<path class="st0" d="M307.7,75.9c3.7,3.6,3.7,9.8,0,13.6c-3.6,3.6-9.8,3.6-13.6,0c-3.6-3.7-3.6-10,0-13.6
		C297.8,72.1,304,72.1,307.7,75.9z"/>
</g>
<path class="st1" d="M37.2,52.1c0,4.6-1.6,9.1-4.7,13.5c-3.2,4.5-7,8.7-11.6,12.7c-0.2,0.2-0.4,0.5-0.6,0.9c-0.1,0.4-0.3,0.7-0.4,1
	c-2.8,1.7-5.4,2.6-7.7,2.6c-1.9,0-3.5-0.5-4.7-1.4c-1.2-1-2.4-1.9-3.7-2.9c-0.4-0.3-0.8-1-1.2-2.1s-0.9-1.6-1.7-1.6
	C0.8,74,0.6,73.1,0.4,72C0.1,70.8,0,70.1,0,69.8c0-1.3,0.3-2.9,0.8-4.8s1.1-3.7,1.8-5.4s1.3-3.3,1.9-4.6s1.1-2.2,1.4-2.7
	c0.2-0.2,0.2-0.5,0.2-0.9c0-0.5,0.1-0.8,0.4-1.1c0.5-0.8,1-1.5,1.6-2.3c0.6-0.7,1-1.5,1.4-2.2c0.2-0.2,0.4-0.2,0.5-0.2
	s0.2,0,0.5-0.1c0.2-0.1,0.4-0.3,0.4-0.6s0.1-0.6,0.4-0.9c0.3-0.6,0.8-1.1,1.5-1.4c0.7-0.4,1.2-0.8,1.6-1.4c0.2-0.3,0.4-0.7,0.4-1.2
	s0.1-0.9,0.4-1.3c-0.2,0-0.4-0.1-0.7-0.2c-0.3-0.1-0.6,0-0.9,0.4c0-0.3-0.1-0.6-0.2-0.7c-0.2,0.2-0.4,0.5-0.4,1
	c0-0.6-0.3-0.9-0.9-0.9l0.2-0.1c0.1,0,0.2-0.1,0.5-0.4c-0.2-1.2,0.1-2.2,0.9-3c0.8-0.8,1.7-1.6,2.9-2.2c1.1-0.6,2.2-1.1,3.3-1.5
	c1.1-0.4,1.8-0.7,2.1-1.1c0.3,0.7,0.7,0.9,1.2,0.8s1.1,0,1.7,0.3c0.3,0.2,0.9,0.8,1.7,1.6c0.8,0.8,1.5,1.5,2.1,2.1
	c0,0.1,0.1,0.2,0.2,0.5c0.2,0.4,0.3,0.7,0.5,0.9c0.2,0.1,0.4,0.1,0.6,0.1s0.5,0.1,0.6,0.2c1.9,2.7,3.5,5.2,4.7,7.8
	C36.6,46.9,37.2,49.5,37.2,52.1z M26.8,48.2c0-0.5-0.2-1.2-0.5-2.2s-0.7-1.8-1-2.4c-0.7,1.3-1.6,2.7-2.7,4.2c-1.2,1.5-2,2.6-2.6,3.5
	c-0.7,1.2-1.5,2.7-2.4,4.5c-0.9,1.7-1.8,3.4-2.6,5s-1.5,3.1-2.1,4.4c-0.5,1.3-0.8,2-0.8,2.2v1.1c0.8-0.6,1.8-1.3,2.9-2.3
	s1.8-1.4,2.1-1.4c0.4,0,0.5,0.1,0.1,0.4c-0.3,0.2-0.2,0.4,0.2,0.4c0.3,0,0.8-0.4,1.5-1.3s1.3-1.8,2-2.9c0.7-1,1.3-2,1.9-2.9
	s1-1.4,1.1-1.6c0.2-0.2,0.4-0.8,0.7-1.7c0.3-0.9,0.7-1.9,1-2.9s0.6-1.9,0.8-2.7C26.7,48.7,26.8,48.2,26.8,48.2z M24,42.6v-1.9h-0.6
	v1.9H24z"/>
<path class="st1" d="M57.5,36.3c-0.2,1.5-0.4,2.8-0.6,4c0,0.4-0.1,0.7-0.2,1c-0.2,0.2-0.3,0.5-0.5,0.7c-0.7,1.9-0.9,3.7-0.7,5.5
	c0.5-0.5,1-1.1,1.6-1.9c0.5-0.8,1.2-1.6,1.9-2.4c0.7-0.8,1.4-1.5,2-2.2s1.3-1.2,1.9-1.4c0.6-0.2,1.2-0.4,1.9-0.4
	c0.7,0,1.4-0.2,2.1-0.6c0.4,0.3,0.7,0.6,0.9,0.9c0.2,0.3,0.4,0.6,0.6,0.9c0.3-0.2,0.6-0.3,0.8-0.5c0.2-0.2,0.5-0.3,0.9-0.4
	c0.3,0,0.8,0.3,1.5,0.9c0.7,0.6,1.2,1.1,1.7,1.6v0.1c0,0.1-0.1,0.2-0.2,0.4c0,0.2,0.1,0.3,0.3,0.4c0.2,0.1,0.4,0.1,0.4,0.1
	c0.7,1.5,1.3,2.5,1.7,3c0.4,0.5,0.6,1,0.7,1.4s0.1,0.7,0.1,0.9s0,0.8,0.1,1.6c0.1,0.2,0.1,0.9,0.1,2.1c0,1.2-0.1,2.7-0.1,4.2
	c0,1.6-0.1,3.3-0.2,5c-0.1,1.8-0.1,3.3,0,4.5c-0.2,1-0.2,2.1-0.1,3.2c0.1,1.2,0.2,2.4,0.3,3.6c0.4,0.2,1,0.3,1.6,0.2
	c0.5,0,1.1-0.2,1.9-0.6s1.6-0.8,2.4-1.2c0.8-0.5,1.6-1,2.4-1.5s1.4-0.9,1.9-1.1h-0.1c-0.2,0-0.3,0.1-0.2,0.2L86,69.2h0.5
	c0.4-0.1,1.1-0.5,1.9-1.2c0.9-0.7,1.8-1.3,2.7-1.8c-0.5,0.8-0.8,1.7-0.9,2.6c-0.2,0.2-0.2,0.4,0,0.6s0.2,0.4,0.1,0.5
	c-0.2,0.2-0.4,0.3-0.6,0.5s-0.4,0.4-0.6,0.6c0.2,0.2,0.6,0.2,1,0.2L90,71.3c-0.2,0.2-0.4,0.3-0.5,0.2c-0.2,0.2-0.4,0.6-0.4,1
	s-0.2,0.8-0.6,1.1c0.2,0.3,0.2,0.7,0.2,1s0.1,0.7,0.3,1c-0.3,0.3-0.7,0.6-1.1,0.9s-0.6,0.7-0.7,1.2c-0.3,0.6-0.9,1.1-1.8,1.6
	s-1.6,1-2,1.6c-0.4,0.2-0.9,0.6-1.3,1.2c-0.5,0.7-0.8,1.2-0.9,1.5c-0.8,0.1-1.8,0.1-2.8-0.1c-1-0.1-1.8-0.2-2.2-0.2
	c-0.3,0-0.9-0.1-1.7-0.4c-0.8-0.3-1.6-0.7-2.5-1.2s-1.6-1-2.3-1.5c-0.7-0.5-1-0.9-1.1-1.1c-0.9-1.8-1.8-3.7-2.5-5.7
	c-0.8-2-1.3-3.9-1.6-5.8c-0.3-1.2-0.5-2.9-0.6-5c0-2.1-0.1-4.1-0.2-5.9c-0.2-0.1-0.2-0.2-0.1-0.3c0.1-0.1,0-0.2-0.1-0.3
	c-1.7,1.9-3.4,4.1-5.3,6.7c-1.9,2.6-3.7,4.9-5.5,7c-0.1,0.1-0.1,0.4,0,0.9c-0.6,1.1-1.2,2.2-1.8,3.2C50.4,75,49.6,76,48.8,77
	c-0.6,0.7-1.4,1.6-2.4,2.7c-1,1-1.7,1.6-2.1,1.7c-0.4,0-0.8-0.2-1.1-0.6s-0.7-0.6-1-0.5c-0.5,0-0.6,0.1-0.4,0.2
	c0.2,0.1,0.1,0.2-0.3,0.2c-0.7,0.1-1.4-0.2-1.9-0.8c-0.5-0.6-0.9-1.3-1.2-2.1c-0.3-0.7-0.5-1.5-0.7-2.2s-0.3-1.2-0.4-1.2
	c-0.2-0.2-0.5-0.4-0.7-0.8s-0.4-0.8-0.5-1.4c0-0.3,0.2-1.3,0.5-2.9s0.5-3,0.6-4.3c0.3-0.6,0.6-1.2,0.9-1.9c0.3-0.7,0.5-1.3,0.7-1.9
	c0.2-0.9,0.4-1.9,0.4-3s0.2-2.1,0.4-3c1.2-3.4,2.6-7.4,4.2-12.1 M70.4,41.1l-0.1-0.6l-0.9,0.1l0.1,0.6L70.4,41.1z"/>
</svg>
