<?xml version="1.0" encoding="utf-8"?>
<!-- Generator: Adobe Illustrator 19.1.0, SVG Export Plug-In . SVG Version: 6.00 Build 0)  -->
<svg version="1.1" id="Layer_1" xmlns="http://www.w3.org/2000/svg" xmlns:xlink="http://www.w3.org/1999/xlink" x="0px" y="0px"
	 viewBox="0 0 803 293.7" style="enable-background:new 0 0 803 293.7;" xml:space="preserve">
<path style="fill:#31AFF5;" d="M253.5,66.1c39.2,54.4,34.5,126.8-12.1,175.2c-46.6,48.5-122.9,50.1-175.7,11.7
	c-7.2-5.3-14.2,6.8-7,12c59.4,43.2,139.7,36.8,192.5-13.9c52.4-50.4,55.8-134.3,14.3-192C260.3,52,248.3,58.9,253.5,66.1L253.5,66.1
	z"/>
<path style="fill:#31AFF5;" d="M40.8,228.1C1.2,173.8,5.7,101,52.5,52.4C99,4,175.1,2.3,227.9,40.5c7.3,5.3,14.2-6.8,7-12
	C175.5-14.5,95.3-8.1,42.7,42.6C-9.9,93.2-13.2,177.5,28.9,235.1C34.1,242.3,46.1,235.4,40.8,228.1L40.8,228.1z"/>
<path style="fill:#31AFF5;" d="M72.5,196c-22.6-36.6-18.2-81,11.4-112.3c29.2-30.9,76.9-33,111.9-11.7c7.7,4.7,14.6-7.3,7-12
	C160.9,34.6,109.6,40.4,74.1,74C38.6,107.4,35.7,162.9,60.5,203C65.2,210.6,77.2,203.7,72.5,196L72.5,196z"/>
<path style="fill:#31AFF5;" d="M221.9,98.4c22.1,36.5,17.5,80.6-11.8,111.6c-29.2,30.9-76.8,33-111.8,11.7c-7.7-4.7-14.6,7.3-7,12
	c41.9,25.5,93.1,19.7,128.6-13.9c35.2-33.3,38.3-88.3,14-128.4C229.2,83.7,217.2,90.7,221.9,98.4L221.9,98.4z"/>
<path style="fill:#31AFF5;" d="M177.2,177.1c-17.7,16.3-42.9,16.3-60.6,0c-17.7-16.3-15.3-44,0-60.6c16.3-17.7,44-15.3,60.6,0
	C195,132.9,192.6,160.5,177.2,177.1c-6.1,6.6,3.7,16.4,9.8,9.8c21.6-23.4,21.6-56.8,0-80.2c-21.5-23.3-58.2-20.3-80.2,0
	c-23.4,21.5-20.3,58.2,0,80.2c21.5,23.4,58.2,20.3,80.2,0C193.6,180.9,183.8,171.1,177.2,177.1z"/>
<path style="fill:#F9F9F9;" d="M770.6,193.2c-7.2,7.2-7.2,19.4,0,26.8c7.4,7.2,19.7,7.2,26.8,0c7.4-7.4,7.4-19.7,0-26.8
	C790.3,185.8,778,185.8,770.6,193.2 M696.2,191.1c-6.1,7.7-14.1,11.5-23.8,11.5c-9.7,0-17.6-3.8-23.8-11.5
	c-6.1-7.9-9.2-18.4-9.2-31.4c0-13,3.1-23.5,9.2-31.2c6.1-7.9,14.1-11.8,23.8-11.8c9.7,0,17.6,3.8,23.8,11.8
	c6.1,7.7,9.2,18.1,9.2,31.2C705.4,172.7,702.4,183.2,696.2,191.1 M733.5,159.7c0-41.9-19.9-66.4-57.5-66.4c-15.6,0-30.2,8.4-35,16.9
	V95.3h-26.6v180.9H641v-66.4c6.4,9.2,19.4,16.4,34.5,16.4C713.3,226.2,733.5,200.6,733.5,159.7 M504.3,187.1
	c0-12.3,10.2-19.9,26.6-19.9h23.3v2.8c0,10.5-3.3,18.4-10.2,24.3c-6.6,5.6-14.6,8.4-23.5,8.4C510,202.6,504.3,196.3,504.3,187.1
	 M476.2,187.1c0,25.5,16.9,39.1,39.6,39.1c17.6,0,30.9-6.4,39.9-18.9l2.6,16.9h22.5v-80c0-34-17.1-50.8-51.4-50.8
	c-24.5,0-43.2,13.8-48.5,35.5l24.3,5.1c4.3-11.5,12.3-17.1,24-17.1c14.6,0,25,7.2,25,22.5v5.6h-22.2
	C498.5,144.9,476.2,160.7,476.2,187.1 M394.2,118.8v61.3c0,30.4,16.6,46,42.2,46c7.4,0,14.3-1.5,20.7-4.6l-6.9-22.5
	c-3.8,2.3-7.9,3.6-12.3,3.6c-11.5,0-17.1-6.9-17.1-21v-62.9h33.5V95.3h-33.5V43.2l-26.6,16.6v35.5h-21.5v23.5H394.2z"/>
</svg>
